{"title":"Songs of praise 4","uid":7066186,"size":2614712430,"categoryP":"video","categoryS":"tv_shows","magnet":"?xt=urn:btih:f98981a83790d6a4d6cb430deaa29616f996275a&amp;dn=Songs+of+praise+4&amp;tr=udp%3A%2F%2Ftracker.openbittorrent.com%3A80&amp;tr=udp%3A%2F%2Fopen.demonii.com%3A1337&amp;tr=udp%3A%2F%2Ftracker.coppersurfer.tk%3A6969&amp;tr=udp%3A%2F%2Fexodus.desync.com%3A6969","seeders":0,"leechers":0,"uploader":"kokyzake","files":5,"time":1330521864,"description":"Pack 4:\n\n2011-05-29 Canterbury\n2011-06-05 Irish Voices\n2011-06-12 Pentecost Praise\n2011-06-19 Olympic Countdown\n\n\nVideo\nID                                       : 0\nFormat                                   : MPEG-4 Visual\nFormat profile                           : Simple@L3\nFormat settings, BVOP                    : No\nFormat settings, QPel                    : No\nFormat settings, GMC                     : No warppoints\nFormat settings, Matrix                  : Default (H.263)\nCodec ID                                 : XVID\nCodec ID/Hint                            : XviD\nDuration                                 : 34mn 6s\nBit rate                                 : 3 462 Kbps\nWidth                                    : 720 pixels\nHeight                                   : 404 pixels\nDisplay aspect ratio                     : 16:9\nFrame rate                               : 29.970 fps\nOriginal frame rate                      : 29.000 fps\nColor space                              : YUV\nChroma subsampling                       : 4:2:0\nBit depth                                : 8 bits\nScan type                                : Progressive\nCompression mode                         : Lossy\nBits/(Pixel*Frame)                       : 0.397\nStream size                              : 844 MiB (96%)\nWriting library                          : XviD 1.2.1 (UTC 2008-12-04)\n\nAudio\nID                                       : 1\nFormat                                   : MPEG Audio\nFormat version                           : Version 1\nFormat profile                           : Layer 3\nMode                                     : Joint stereo\nMode extension                           : MS Stereo\nCodec ID                                 : 55\nCodec ID/Hint                            : MP3\nDuration                                 : 34mn 6s\nBit rate mode                            : Constant\nBit rate                                 : 128 Kbps\nChannel(s)                               : 2 channels\nSampling rate                            : 44.1 KHz\nCompression mode                         : Lossy\nStream size                              : 31.2 MiB (4%)\nAlignment                                : Aligned on interleaves\nInterleave, duration                     : 26 ms (0.78 video frame)\nInterleave, preload duration             : 130 ms\nWriting library                          : LAME3.98\n","torrent":{"xt":"urn:btih:f98981a83790d6a4d6cb430deaa29616f996275a","amp;dn":"Songs+of+praise+4","amp;tr":["udp%3A%2F%2Ftracker.openbittorrent.com%3A80","udp%3A%2F%2Fopen.demonii.com%3A1337","udp%3A%2F%2Ftracker.coppersurfer.tk%3A6969","udp%3A%2F%2Fexodus.desync.com%3A6969"],"infoHash":"f98981a83790d6a4d6cb430deaa29616f996275a","infoHashBuffer":{"type":"Buffer","data":[249,137,129,168,55,144,214,164,214,203,67,13,234,162,150,22,249,150,39,90]},"announce":[],"urlList":[]}}